<svg width="132" height="72" viewBox="0 0 132 72" fill="none" xmlns="http://www.w3.org/2000/svg">
<path d="M57.486 29.6728L57.3752 29.3265L57.038 29.4607L49.4407 32.4848L49.9737 24.6593L49.9985 24.2962H49.6354H42.8402H42.4779L42.5018 24.6586L42.9955 32.1219L35.9646 29.3783L35.6293 29.2474L35.5189 29.5907L33.4437 36.0368L33.3333 36.3795L33.6809 36.4702L40.9773 38.3753L36.1503 44.206L35.9189 44.4856L36.2124 44.6986L41.6648 48.656L41.9563 48.8675L42.1496 48.5634L46.2993 42.036L50.4891 48.6046L50.6829 48.9084L50.974 48.6965L56.4671 44.6983L56.7582 44.4864L56.53 44.2077L51.8629 38.501L59.322 36.593L59.6712 36.5038L59.5612 36.1597L57.486 29.6728ZM84.586 29.6728L84.4751 29.3265L84.138 29.4607L76.5408 32.4848L77.0738 24.6593L77.0985 24.2962H76.7355H69.9403H69.5779L69.6019 24.6586L70.0956 32.1219L63.0646 29.3783L62.7294 29.2474L62.619 29.5907L60.5438 36.0368L60.4334 36.3795L60.781 36.4702L68.0774 38.3753L63.2504 44.206L63.019 44.4856L63.3125 44.6986L68.7649 48.656L69.0563 48.8675L69.2497 48.5634L73.3994 42.036L77.5892 48.6046L77.7829 48.9084L78.0739 48.6965L83.5671 44.6983L83.8581 44.4864L83.6301 44.2077L78.963 38.501L86.4221 36.593L86.7713 36.5038L86.6611 36.1597L84.586 29.6728Z" fill="#0751CF"/>
<path d="M57.486 29.6728L57.3752 29.3265L57.038 29.4607L49.4407 32.4848L49.9737 24.6593L49.9985 24.2962H49.6354H42.8402H42.4779L42.5018 24.6586L42.9955 32.1219L35.9646 29.3783L35.6293 29.2474L35.5189 29.5907L33.4437 36.0368L33.3333 36.3795L33.6809 36.4702L40.9773 38.3753L36.1503 44.206L35.9189 44.4856L36.2124 44.6986L41.6648 48.656L41.9563 48.8675L42.1496 48.5634L46.2993 42.036L50.4891 48.6046L50.6829 48.9084L50.974 48.6965L56.4671 44.6983L56.7582 44.4864L56.53 44.2077L51.8629 38.501L59.322 36.593L59.6712 36.5038L59.5612 36.1597L57.486 29.6728ZM84.586 29.6728L84.4751 29.3265L84.138 29.4607L76.5408 32.4848L77.0738 24.6593L77.0985 24.2962H76.7355H69.9403H69.5779L69.6019 24.6586L70.0956 32.1219L63.0646 29.3783L62.7294 29.2474L62.619 29.5907L60.5438 36.0368L60.4334 36.3795L60.781 36.4702L68.0774 38.3753L63.2504 44.206L63.019 44.4856L63.3125 44.6986L68.7649 48.656L69.0563 48.8675L69.2497 48.5634L73.3994 42.036L77.5892 48.6046L77.7829 48.9084L78.0739 48.6965L83.5671 44.6983L83.8581 44.4864L83.6301 44.2077L78.963 38.501L86.4221 36.593L86.7713 36.5038L86.6611 36.1597L84.586 29.6728Z" fill="url(#paint0_linear_7_21)" fill-opacity="0.2"/>
<path d="M90 49H110" stroke="#FCFDFE" stroke-width="4"/>
<defs>
<linearGradient id="paint0_linear_7_21" x1="60.0523" y1="55.2624" x2="60.0523" y2="20.7094" gradientUnits="userSpaceOnUse">
<stop stop-opacity="0"/>
<stop offset="1" stop-color="white"/>
</linearGradient>
</defs>
</svg>
